Coordinates
version=1
nRows=6
nColumns=36
inDegrees=yes

Units are S.I. units (second, meters, Newtons, ...)
If the header above contains a line with 'inDegrees', this indicates whether rotational values are in degrees (yes) or radians (no).

endheader
time	pelvis_tilt	pelvis_list	pelvis_rotation	pelvis_tx	pelvis_ty	pelvis_tz	hip_flexion_r	hip_adduction_r	hip_rotation_r	knee_angle_r	knee_angle_r_beta	ankle_angle_r	subtalar_angle_r	mtp_angle_r	hip_flexion_l	hip_adduction_l	hip_rotation_l	knee_angle_l	knee_angle_l_beta	ankle_angle_l	subtalar_angle_l	mtp_angle_l	lumbar_extension	lumbar_bending	lumbar_rotation	arm_flex_r	arm_add_r	arm_rot_r	elbow_flex_r	pro_sup_r	arm_flex_l	arm_add_l	arm_rot_l	elbow_flex_l	pro_sup_l
      3.95416670	     -5.62225759	      5.18642785	     -0.75092214	     -0.09290725	      1.17382760	     -0.04687546	     27.25456015	    -11.07859793	     -5.70472588	     14.41829263	      0.25164668	    -22.18248190	     -5.05396075	     -7.49999987	     28.17549776	     -5.14130434	    -16.42555367	     24.16056908	      0.42168148	    -18.10860144	      7.48589180	     -7.49999987	    -22.08411882	      2.44492907	    -13.67493199	    -21.38627881	    -19.11022220	      4.29116077	     62.37991722	     82.06389783	    -39.60987451	    -37.54073324	    -61.20689478	     45.92222817	     70.07711899
      3.95833330	     -5.18841507	      5.24311320	     -0.83258645	     -0.08951976	      1.16566464	     -0.04685599	     27.24454796	    -11.30021438	     -5.62865824	     14.14528205	      0.24688175	    -22.41284441	     -4.71401074	     -7.49999987	     28.16532477	     -5.08932934	    -16.31129218	     23.81966224	      0.41573153	    -18.37830067	      7.99287411	     -7.49999987	    -22.54900072	      2.40892026	    -13.92058914	    -23.58682966	    -18.69394584	      1.55279149	     63.49500141	     81.63005375	    -41.55838513	    -36.26342981	    -61.70340625	     44.75717217	     69.21940656
      3.96250000	     -4.83027395	      5.26503638	     -0.88936550	     -0.08017317	      1.15366179	     -0.04668983	     27.12922558	    -11.40245875	     -5.39615570	     13.85301106	      0.24178065	    -22.66169498	     -4.38395398	     -7.49999987	     28.09781149	     -5.15836640	    -16.25060360	     23.36613641	      0.40781601	    -18.31325934	      8.75573331	     -7.49999987	    -22.51853448	      2.27143557	    -14.37529718	    -25.44972397	    -18.93519896	      0.02209762	     64.28009736	     81.52327322	    -43.71120483	    -35.19598450	    -62.11446015	     43.16381149	     68.98113969
      3.96666670	     -4.63413459	      5.17790625	     -0.94519043	     -0.07567376	      1.14582100	     -0.04812880	     27.24357454	    -11.52431717	     -5.29257406	     13.73635208	      0.23974457	    -23.13928415	     -4.09386330	     -7.49999987	     28.27263803	     -5.24972177	    -16.04625679	     23.24060336	      0.40562505	    -18.32472161	      9.54676488	     -7.49999987	    -22.57645573	      2.37846065	    -14.40780692	    -27.01585633	    -19.43311540	     -1.13081182	     65.16682636	     81.39134247	    -45.00170102	    -34.08345796	    -62.49540185	     41.87420101	     68.62973877
      3.97083330	     -4.26950079	      5.05309552	     -0.95481439	     -0.06846349	      1.14027704	     -0.05038208	     26.94731758	    -11.62676397	     -5.18384829	     13.41126264	      0.23407069	    -23.51041621	     -3.27996851	     -7.49999987	     28.03824684	     -5.27030926	    -15.92385151	     22.71290700	      0.39641501	    -18.79481501	      9.94248587	     -7.49999987	    -22.78324078	      2.77794260	    -13.43799503	    -29.22094618	    -20.03609503	     -2.71879477	     66.24040514	     79.73512057	    -44.84274992	    -33.96783068	    -60.76840457	     40.04256387	     63.71172119
      3.97500000	     -4.05122014	      5.06756308	     -0.95155149	     -0.06428881	      1.12659771	     -0.05118257	     27.10910116	    -11.76300992	     -4.97104383	     13.25879536	      0.23140963	    -23.77899290	     -2.81996437	     -7.49999987	     28.33430932	     -5.25563573	    -15.70022285	     22.65054017	      0.39532650	    -18.99706729	     10.18378604	     -7.49999987	    -23.06800153	      2.78242101	    -12.76332057	    -30.43418648	    -21.18082071	     -3.01295794	     65.98364711	     79.63901153	    -45.73271536	    -33.49714453	    -60.95560084	     39.65648820	     63.65194629
